# xmcd
#
# Track frame offsets: 
#        182
#        11572
#        22555
#        37122
#        47837
#        56570
#        66732
#        75697
#        85672
#        98250
#        108205
#        122390
#        131637
#        144432
#        156345
#        168820
#        178297
#        188850
#
# Disc length: 2660 seconds
#
# Revision: 2
# Processed by: cddbd v1.5.1PL0 Copyright (c) Steve Scherf et al.
# Submitted via: ExactAudioCopy v0.95b1
#
DISCID=e30a6212
DTITLE=Various Artist - Rhythm and Blues House Party
DYEAR=1986
DGENRE=Blues
TTITLE0=Larry Dale - Let The Doorbell Ring
TTITLE1=Little Richard - I'll Never Let You Go
TTITLE2=The Cadets - Stranded In The Jungle
TTITLE3=Jimmy Beasley - Harbour Lights
TTITLE4=Big Boy Myles - Who"s Been Foolin'  You
TTITLE5=The Chimes - Chop Chop
TTITLE6=Henry Pierce and His Five Notes - Hey Fine Mama
TTITLE7=Marvin Phillips - How Long She's Been Gone
TTITLE8=Dolly Cooper - Ay La Bas
TTITLE9=Young Jessie - Pretty Soon
TTITLE10=Carol Fran - The Great Pretender
TTITLE11=The Jive Five - These Golden Rings
TTITLE12=Floyd Dixon - Hole In The Wall
TTITLE13=Joe Houston - Drag Race
TTITLE14=Etta James - W-O-M-A-N
TTITLE15=The Dukes - Ooh-Bop-She-Bop
TTITLE16=Bob Gaddy - Come On Little Children
TTITLE17=Roy Montrell - Every Time I Hear That Mellow Saxophone (I Wan
TTITLE17=na Rock)
EXTD=
EXTT0=Larry Dale
EXTT1=Little Richard
EXTT2=The Cadets
EXTT3=Jimmy Beasley
EXTT4=Big Boy Myles
EXTT5=The Chimes
EXTT6=Henry Peirce and His Five Notes
EXTT7=Marvin Phillips
EXTT8=Dolly Cooper
EXTT9=Young Jessie
EXTT10=Carol Fran
EXTT11=The Jive Five
EXTT12=Floyd Dixon
EXTT13=Joe Houston
EXTT14=Etta James
EXTT15=The Dukes
EXTT16=Bob Gaddy
EXTT17=Roy Montrell
PLAYORDER=
